<svg width="118" height="22" viewBox="0 0 118 22" fill="none" xmlns="http://www.w3.org/2000/svg">
<path d="M9.8 2.632V18.816C10.1547 19.0773 10.4907 19.264 10.808 19.376C11.144 19.488 11.4613 19.544 11.76 19.544C12.488 19.544 13.0947 19.2827 13.58 18.76C14.084 18.2187 14.4947 17.528 14.812 16.688C15.1293 15.8293 15.3533 14.8773 15.484 13.832C15.6333 12.7867 15.708 11.76 15.708 10.752C15.708 9.016 15.5867 7.532 15.344 6.3C15.1013 5.068 14.7093 4.06 14.168 3.276C13.6267 2.492 12.9267 1.92267 12.068 1.568C11.2093 1.19467 10.1733 1.008 8.96 1.008C8.12 1.008 7.31733 1.13867 6.552 1.4C5.78667 1.66133 5.11467 2.044 4.536 2.548C3.95733 3.03333 3.49067 3.64 3.136 4.368C2.8 5.07733 2.632 5.88933 2.632 6.804C2.632 7.34533 2.688 7.80267 2.8 8.176C2.93067 8.54933 3.07067 8.85733 3.22 9.1C3.388 9.34267 3.556 9.53867 3.724 9.688C3.91067 9.81867 4.06 9.92133 4.172 9.996C3.03333 9.996 2.13733 9.73467 1.484 9.212C0.830667 8.68933 0.504 7.812 0.504 6.58C0.504 5.72133 0.728 4.89067 1.176 4.088C1.624 3.28533 2.24 2.58533 3.024 1.988C3.82667 1.39067 4.76 0.914666 5.824 0.559999C6.90667 0.186665 8.08267 -1.66893e-06 9.352 -1.66893e-06C11.144 -1.66893e-06 12.656 0.307999 13.888 0.924C15.12 1.52133 16.1187 2.324 16.884 3.332C17.6493 4.32133 18.2 5.46 18.536 6.748C18.872 8.036 19.04 9.36133 19.04 10.724C19.04 12.0493 18.9 13.3467 18.62 14.616C18.3587 15.8853 17.9853 17.024 17.5 18.032C17.0333 19.0213 16.4733 19.824 15.82 20.44C15.1667 21.056 14.448 21.364 13.664 21.364C13.104 21.364 12.5067 21.2333 11.872 20.972C11.2373 20.7107 10.5467 20.3 9.8 19.74V21H6.776V3.052L9.8 2.632ZM29.7942 10.5C29.7942 11.8067 29.2529 12.8987 28.1702 13.776C27.1062 14.6533 25.6222 15.1947 23.7182 15.4C23.7929 16.1467 23.9235 16.7533 24.1102 17.22C24.3155 17.6867 24.5582 18.06 24.8382 18.34C25.1182 18.6013 25.4355 18.788 25.7902 18.9C26.1635 18.9933 26.5462 19.04 26.9382 19.04C27.8342 19.04 28.6742 18.8067 29.4582 18.34C30.2422 17.8733 30.8769 17.0893 31.3622 15.988H32.2582C32.0155 16.6787 31.6795 17.3413 31.2502 17.976C30.8209 18.592 30.3169 19.1427 29.7382 19.628C29.1595 20.0947 28.5342 20.468 27.8622 20.748C27.1902 21.028 26.4995 21.168 25.7902 21.168C25.1369 21.168 24.5022 21.056 23.8862 20.832C23.2889 20.608 22.7569 20.244 22.2902 19.74C21.8235 19.2173 21.4409 18.5453 21.1422 17.724C20.8622 16.9027 20.7222 15.8947 20.7222 14.7C20.7222 13.916 20.8062 13.0667 20.9742 12.152C21.1609 11.2373 21.4595 10.388 21.8702 9.604C22.2995 8.82 22.8502 8.16667 23.5222 7.644C24.2129 7.12133 25.0622 6.86 26.0702 6.86C26.5369 6.86 26.9849 6.916 27.4142 7.028C27.8622 7.12133 28.2635 7.308 28.6182 7.588C28.9729 7.84933 29.2529 8.21333 29.4582 8.68C29.6822 9.14667 29.7942 9.75333 29.7942 10.5ZM23.6902 14.308C25.0155 14.1027 26.0609 13.636 26.8262 12.908C27.6102 12.18 28.0022 11.284 28.0022 10.22C28.0022 9.51067 27.8809 9.00667 27.6382 8.708C27.3955 8.39067 27.0502 8.232 26.6022 8.232C26.1169 8.232 25.6875 8.41867 25.3142 8.792C24.9595 9.16533 24.6609 9.65067 24.4182 10.248C24.1755 10.8267 23.9889 11.48 23.8582 12.208C23.7462 12.9173 23.6902 13.6173 23.6902 14.308ZM34.1388 7V9.128C34.4188 8.624 34.6988 8.22267 34.9788 7.924C35.2774 7.60667 35.5761 7.37333 35.8748 7.224C36.1734 7.07467 36.4534 6.98133 36.7148 6.944C36.9948 6.888 37.2561 6.86 37.4988 6.86C38.3388 6.86 39.0108 7.01867 39.5148 7.336C40.0374 7.65333 40.4294 8.064 40.6908 8.568C40.9521 9.05333 41.1201 9.59467 41.1948 10.192C41.2881 10.7707 41.3348 11.3307 41.3348 11.872C41.3348 12.208 41.3254 12.5813 41.3068 12.992C41.2881 13.384 41.2694 13.7947 41.2508 14.224C41.2321 14.6347 41.2134 15.0547 41.1948 15.484C41.1761 15.8947 41.1668 16.2773 41.1668 16.632C41.1668 16.7813 41.1761 16.996 41.1948 17.276C41.2134 17.5373 41.2601 17.7987 41.3348 18.06C41.4094 18.3213 41.5308 18.5547 41.6988 18.76C41.8668 18.9467 42.1094 19.04 42.4268 19.04C42.8561 19.04 43.2388 18.7973 43.5748 18.312C43.9294 17.8267 44.2188 17.052 44.4428 15.988H45.4788C45.2734 17.164 45.0121 18.0973 44.6948 18.788C44.3774 19.46 44.0414 19.9733 43.6868 20.328C43.3321 20.6827 42.9774 20.9067 42.6228 21C42.2681 21.112 41.9414 21.168 41.6428 21.168C41.0454 21.168 40.5414 21.056 40.1308 20.832C39.7201 20.5893 39.3841 20.272 39.1228 19.88C38.8614 19.488 38.6654 19.0307 38.5348 18.508C38.4228 17.9853 38.3668 17.444 38.3668 16.884C38.3668 16.716 38.3668 16.408 38.3668 15.96C38.3854 15.4933 38.3948 14.9987 38.3948 14.476C38.4134 13.9533 38.4228 13.4587 38.4228 12.992C38.4414 12.5253 38.4508 12.1987 38.4508 12.012C38.4508 11.4147 38.4041 10.92 38.3108 10.528C38.2174 10.136 38.0868 9.828 37.9188 9.604C37.7508 9.38 37.5548 9.22133 37.3308 9.128C37.1254 9.03467 36.9014 8.988 36.6588 8.988C36.0801 8.988 35.5761 9.22133 35.1468 9.688C34.7361 10.1547 34.4001 10.9387 34.1388 12.04V21H31.3388V7H34.1388ZM47.2371 2.744V7H49.3931V7.98H47.2371V16.52C47.2371 16.744 47.2464 17.0053 47.2651 17.304C47.2838 17.584 47.3304 17.8547 47.4051 18.116C47.4984 18.3773 47.6291 18.6013 47.7971 18.788C47.9838 18.956 48.2358 19.04 48.5531 19.04C49.0571 19.04 49.5331 18.788 49.9811 18.284C50.4478 17.78 50.8118 17.0147 51.0731 15.988H52.1091C51.7918 17.164 51.4464 18.0973 51.0731 18.788C50.7184 19.46 50.3451 19.9733 49.9531 20.328C49.5611 20.6827 49.1691 20.9067 48.7771 21C48.4038 21.112 48.0584 21.168 47.7411 21.168C47.0691 21.168 46.5184 21.0467 46.0891 20.804C45.6598 20.5427 45.3238 20.216 45.0811 19.824C44.8384 19.432 44.6704 19.0027 44.5771 18.536C44.4838 18.0507 44.4371 17.5747 44.4371 17.108V7.98H43.4851V7H44.4371V3.136L47.2371 2.744ZM59.7903 10.5C59.7903 11.8067 59.2489 12.8987 58.1663 13.776C57.1023 14.6533 55.6183 15.1947 53.7143 15.4C53.7889 16.1467 53.9196 16.7533 54.1063 17.22C54.3116 17.6867 54.5543 18.06 54.8343 18.34C55.1143 18.6013 55.4316 18.788 55.7863 18.9C56.1596 18.9933 56.5423 19.04 56.9343 19.04C57.5316 19.04 58.0916 18.9373 58.6143 18.732C59.1556 18.5267 59.6036 18.172 59.9583 17.668C59.9769 17.7987 59.9863 17.9293 59.9863 18.06C60.0049 18.172 60.0143 18.2747 60.0143 18.368C60.0143 18.7973 59.9023 19.18 59.6783 19.516C59.4729 19.852 59.1836 20.1507 58.8103 20.412C58.4556 20.6547 58.0356 20.8413 57.5503 20.972C57.0836 21.1027 56.5889 21.168 56.0663 21.168C55.4316 21.168 54.7969 21.056 54.1623 20.832C53.5276 20.5893 52.9489 20.216 52.4263 19.712C51.9223 19.1893 51.5116 18.5173 51.1943 17.696C50.8769 16.8747 50.7183 15.876 50.7183 14.7C50.7183 13.916 50.8023 13.0667 50.9703 12.152C51.1569 11.2373 51.4556 10.388 51.8663 9.604C52.2956 8.82 52.8463 8.16667 53.5183 7.644C54.2089 7.12133 55.0583 6.86 56.0663 6.86C56.5329 6.86 56.9809 6.916 57.4103 7.028C57.8583 7.12133 58.2596 7.308 58.6143 7.588C58.9689 7.84933 59.2489 8.21333 59.4543 8.68C59.6783 9.14667 59.7903 9.75333 59.7903 10.5ZM53.6863 14.308C55.0116 14.1027 56.0569 13.636 56.8223 12.908C57.6063 12.18 57.9983 11.284 57.9983 10.22C57.9983 9.51067 57.8769 9.00667 57.6343 8.708C57.3916 8.39067 57.0463 8.232 56.5983 8.232C56.1129 8.232 55.6836 8.41867 55.3103 8.792C54.9556 9.16533 54.6569 9.65067 54.4143 10.248C54.1716 10.8267 53.9849 11.48 53.8543 12.208C53.7423 12.9173 53.6863 13.6173 53.6863 14.308ZM80.0761 2.912C79.4787 2.912 78.8627 2.86533 78.2281 2.772C77.6121 2.66 76.9867 2.53867 76.3521 2.408V8.82H80.4961V10.472H76.3521V21H73.3281V1.904C73.2347 1.88533 73.1414 1.876 73.0481 1.876C72.9734 1.876 72.8894 1.876 72.7961 1.876C72.3107 1.876 71.8534 1.94133 71.4241 2.072C70.9947 2.20267 70.6214 2.42667 70.3041 2.744C70.0054 3.06133 69.7627 3.49067 69.5761 4.032C69.4081 4.55467 69.3241 5.21733 69.3241 6.02C69.3241 7.028 69.4454 7.87733 69.6881 8.568C69.9494 9.24 70.2481 9.716 70.5841 9.996C68.3627 9.996 67.2521 8.77333 67.2521 6.328C67.2521 5.432 67.4014 4.60133 67.7001 3.836C67.9987 3.07067 68.4654 2.408 69.1001 1.848C69.7347 1.26933 70.5374 0.821332 71.5081 0.503999C72.4974 0.167998 73.6734 -1.66893e-06 75.0361 -1.66893e-06C75.5027 -1.66893e-06 75.9414 0.0186653 76.3521 0.0559993C76.7814 0.0933321 77.1921 0.130666 77.5841 0.168C77.9761 0.205332 78.3774 0.242666 78.7881 0.28C79.1987 0.317333 79.6374 0.335999 80.1041 0.335999C80.5707 0.335999 81.0094 0.317333 81.4201 0.28C81.8307 0.223999 82.2227 0.130666 82.5961 -1.66893e-06C82.5587 0.653332 82.4654 1.176 82.3161 1.568C82.1854 1.94133 82.0081 2.23067 81.7841 2.436C81.5601 2.62267 81.2987 2.75333 81.0001 2.828C80.7201 2.884 80.4121 2.912 80.0761 2.912ZM92.4755 7V16.52C92.4755 16.7067 92.4848 16.94 92.5035 17.22C92.5221 17.5 92.5688 17.78 92.6435 18.06C92.7368 18.3213 92.8675 18.5547 93.0355 18.76C93.2035 18.9467 93.4368 19.04 93.7355 19.04C94.6501 19.04 95.3221 18.0227 95.7515 15.988H96.7875C96.5821 17.164 96.3208 18.0973 96.0035 18.788C95.6861 19.46 95.3501 19.9733 94.9955 20.328C94.6408 20.6827 94.2768 20.9067 93.9035 21C93.5301 21.112 93.1941 21.168 92.8955 21.168C92.4661 21.168 92.0928 21.0933 91.7755 20.944C91.4768 20.7947 91.2155 20.5987 90.9915 20.356C90.7861 20.1133 90.6181 19.8333 90.4875 19.516C90.3568 19.1987 90.2541 18.8627 90.1795 18.508C89.8995 19.236 89.4421 19.8613 88.8075 20.384C88.1915 20.9067 87.4355 21.168 86.5395 21.168C85.9795 21.168 85.4101 21.056 84.8315 20.832C84.2715 20.608 83.7581 20.244 83.2915 19.74C82.8435 19.2173 82.4701 18.5547 82.1715 17.752C81.8915 16.9307 81.7515 15.932 81.7515 14.756C81.7515 13.8973 81.8448 13.0013 82.0315 12.068C82.2368 11.1347 82.5541 10.2853 82.9835 9.52C83.4128 8.75467 83.9635 8.12 84.6355 7.616C85.3075 7.112 86.1195 6.86 87.0715 6.86C87.2955 6.86 87.5288 6.888 87.7715 6.944C88.0328 6.98133 88.2755 7.056 88.4995 7.168C88.7421 7.28 88.9661 7.43867 89.1715 7.644C89.3768 7.83067 89.5448 8.064 89.6755 8.344V7H92.4755ZM87.2395 19.04C87.5195 19.04 87.7995 18.9653 88.0795 18.816C88.3781 18.648 88.6395 18.4333 88.8635 18.172C89.1061 17.892 89.3021 17.5653 89.4515 17.192C89.6008 16.8187 89.6755 16.4173 89.6755 15.988V9.604C89.5448 9.30533 89.3395 9.03467 89.0595 8.792C88.7981 8.53067 88.4528 8.4 88.0235 8.4C87.4261 8.4 86.9128 8.60533 86.4835 9.016C86.0541 9.408 85.7088 9.912 85.4475 10.528C85.1861 11.1253 84.9901 11.788 84.8595 12.516C84.7475 13.2253 84.6915 13.9067 84.6915 14.56C84.6915 16.1653 84.9061 17.3133 85.3355 18.004C85.7835 18.6947 86.4181 19.04 87.2395 19.04ZM88.0235 -1.66893e-06H90.4035L88.1355 5.292H86.5955L88.0235 -1.66893e-06ZM102.089 11.284C102.239 11.1533 102.351 10.948 102.425 10.668C102.519 10.3693 102.565 10.0893 102.565 9.828C102.565 9.39867 102.425 9.044 102.145 8.764C101.884 8.484 101.511 8.344 101.025 8.344C100.521 8.344 100.101 8.53067 99.7653 8.904C99.4293 9.27733 99.1586 9.75333 98.9533 10.332C98.748 10.892 98.5986 11.5267 98.5053 12.236C98.4306 12.9267 98.3933 13.608 98.3933 14.28C98.3933 15.2693 98.4773 16.072 98.6453 16.688C98.832 17.304 99.0746 17.7893 99.3733 18.144C99.672 18.48 100.017 18.7133 100.409 18.844C100.82 18.9747 101.249 19.04 101.697 19.04C102.687 19.04 103.517 18.7973 104.189 18.312C104.88 17.808 105.468 17.0333 105.953 15.988H106.905C106.681 16.6787 106.364 17.3413 105.953 17.976C105.543 18.592 105.067 19.1427 104.525 19.628C103.984 20.0947 103.396 20.468 102.761 20.748C102.127 21.028 101.464 21.168 100.773 21.168C100.12 21.168 99.476 21.056 98.8413 20.832C98.2066 20.608 97.6373 20.244 97.1333 19.74C96.6293 19.2173 96.2186 18.5453 95.9013 17.724C95.584 16.884 95.4253 15.8573 95.4253 14.644C95.4253 13.86 95.4906 13.02 95.6213 12.124C95.7706 11.2093 96.032 10.3693 96.4053 9.604C96.7973 8.82 97.3293 8.16667 98.0013 7.644C98.6733 7.12133 99.5413 6.86 100.605 6.86C101.781 6.86 102.677 7.14933 103.293 7.728C103.909 8.288 104.217 9.11867 104.217 10.22C104.217 10.6867 104.124 11.0787 103.937 11.396C103.769 11.7133 103.499 11.872 103.125 11.872C102.715 11.872 102.369 11.676 102.089 11.284ZM108.761 7V16.52C108.761 16.7067 108.77 16.94 108.789 17.22C108.807 17.5 108.854 17.78 108.929 18.06C109.022 18.3213 109.153 18.5547 109.321 18.76C109.489 18.9467 109.722 19.04 110.021 19.04C110.935 19.04 111.607 18.0227 112.037 15.988H113.073C112.867 17.164 112.606 18.0973 112.289 18.788C111.971 19.46 111.635 19.9733 111.281 20.328C110.926 20.6827 110.562 20.9067 110.189 21C109.815 21.112 109.479 21.168 109.181 21.168C108.527 21.168 107.995 21.0467 107.585 20.804C107.174 20.5427 106.847 20.216 106.605 19.824C106.362 19.432 106.194 18.9933 106.101 18.508C106.007 18.0227 105.961 17.556 105.961 17.108V7H108.761ZM105.457 2.968C105.457 2.464 105.634 2.02533 105.989 1.652C106.343 1.27867 106.782 1.092 107.305 1.092C107.809 1.092 108.247 1.27867 108.621 1.652C108.994 2.02533 109.181 2.464 109.181 2.968C109.181 3.49067 108.994 3.92933 108.621 4.284C108.247 4.63867 107.809 4.816 107.305 4.816C106.782 4.816 106.343 4.63867 105.989 4.284C105.634 3.92933 105.457 3.49067 105.457 2.968ZM114.831 1.4V16.52C114.831 16.744 114.831 17.0053 114.831 17.304C114.85 17.584 114.896 17.8547 114.971 18.116C115.064 18.3773 115.186 18.6013 115.335 18.788C115.503 18.956 115.746 19.04 116.063 19.04C116.212 19.04 116.39 19.0213 116.595 18.984C116.819 18.9467 116.987 18.9093 117.099 18.872C117.118 18.9653 117.127 19.0493 117.127 19.124C117.146 19.1987 117.155 19.2827 117.155 19.376C117.155 19.6933 117.08 19.9733 116.931 20.216C116.8 20.44 116.623 20.6267 116.399 20.776C116.175 20.9067 115.923 21 115.643 21.056C115.363 21.1307 115.083 21.168 114.803 21.168C114.243 21.168 113.786 21.056 113.431 20.832C113.076 20.5893 112.787 20.2813 112.563 19.908C112.358 19.516 112.218 19.0867 112.143 18.62C112.068 18.1533 112.031 17.6867 112.031 17.22V1.792L114.831 1.4Z" fill="white"/>
</svg>
