<svg width="27" height="27" viewBox="0 0 27 27" fill="none" xmlns="http://www.w3.org/2000/svg">
<path d="M23.9741 7.73825L19.2618 3.02485C19.1051 2.86811 18.919 2.74378 18.7143 2.65895C18.5095 2.57412 18.29 2.53046 18.0684 2.53046C17.8467 2.53046 17.6273 2.57412 17.4225 2.65895C17.2178 2.74378 17.0317 2.86811 16.875 3.02485L3.86966 16.0313C3.71228 16.1874 3.5875 16.3732 3.50258 16.578C3.41767 16.7828 3.3743 17.0024 3.37501 17.2241V21.9375C3.37501 22.3851 3.5528 22.8143 3.86927 23.1308C4.18573 23.4472 4.61496 23.625 5.06251 23.625H9.77591C9.99759 23.6257 10.2172 23.5824 10.422 23.4974C10.6268 23.4125 10.8126 23.2877 10.9688 23.1304L23.9741 10.125C24.1308 9.9683 24.2552 9.78226 24.34 9.5775C24.4248 9.37273 24.4685 9.15327 24.4685 8.93163C24.4685 8.70999 24.4248 8.49052 24.34 8.28576C24.2552 8.081 24.1308 7.89495 23.9741 7.73825ZM5.41161 16.875L14.3438 7.94286L16.104 9.70313L7.17188 18.6342L5.41161 16.875ZM5.06251 18.9116L8.08841 21.9375H5.06251V18.9116ZM10.125 21.5884L8.36473 19.8281L17.2969 10.896L19.0572 12.6563L10.125 21.5884ZM20.25 11.4634L15.5366 6.75001L18.0679 4.21876L22.7813 8.9311L20.25 11.4634Z" fill="#699BF7"/>
</svg>
