<svg width="27" height="27" viewBox="0 0 27 27" fill="none" xmlns="http://www.w3.org/2000/svg">
<path d="M22.7812 5.0625H18.5625V4.21875C18.5625 3.54742 18.2958 2.90359 17.8211 2.42889C17.3464 1.95418 16.7026 1.6875 16.0312 1.6875H10.9688C10.2974 1.6875 9.65359 1.95418 9.17889 2.42889C8.70418 2.90359 8.4375 3.54742 8.4375 4.21875V5.0625H4.21875C3.99497 5.0625 3.78036 5.1514 3.62213 5.30963C3.4639 5.46786 3.375 5.68247 3.375 5.90625C3.375 6.13003 3.4639 6.34464 3.62213 6.50287C3.78036 6.66111 3.99497 6.75 4.21875 6.75H5.0625V21.9375C5.0625 22.3851 5.24029 22.8143 5.55676 23.1307C5.87322 23.4472 6.30245 23.625 6.75 23.625H20.25C20.6976 23.625 21.1268 23.4472 21.4432 23.1307C21.7597 22.8143 21.9375 22.3851 21.9375 21.9375V6.75H22.7812C23.005 6.75 23.2196 6.66111 23.3779 6.50287C23.5361 6.34464 23.625 6.13003 23.625 5.90625C23.625 5.68247 23.5361 5.46786 23.3779 5.30963C23.2196 5.1514 23.005 5.0625 22.7812 5.0625ZM10.125 4.21875C10.125 3.99497 10.2139 3.78036 10.3721 3.62213C10.5304 3.46389 10.745 3.375 10.9688 3.375H16.0312C16.255 3.375 16.4696 3.46389 16.6279 3.62213C16.7861 3.78036 16.875 3.99497 16.875 4.21875V5.0625H10.125V4.21875ZM20.25 21.9375H6.75V6.75H20.25V21.9375ZM11.8125 10.9688V17.7188C11.8125 17.9425 11.7236 18.1571 11.5654 18.3154C11.4071 18.4736 11.1925 18.5625 10.9688 18.5625C10.745 18.5625 10.5304 18.4736 10.3721 18.3154C10.2139 18.1571 10.125 17.9425 10.125 17.7188V10.9688C10.125 10.745 10.2139 10.5304 10.3721 10.3721C10.5304 10.2139 10.745 10.125 10.9688 10.125C11.1925 10.125 11.4071 10.2139 11.5654 10.3721C11.7236 10.5304 11.8125 10.745 11.8125 10.9688ZM16.875 10.9688V17.7188C16.875 17.9425 16.7861 18.1571 16.6279 18.3154C16.4696 18.4736 16.255 18.5625 16.0312 18.5625C15.8075 18.5625 15.5929 18.4736 15.4346 18.3154C15.2764 18.1571 15.1875 17.9425 15.1875 17.7188V10.9688C15.1875 10.745 15.2764 10.5304 15.4346 10.3721C15.5929 10.2139 15.8075 10.125 16.0312 10.125C16.255 10.125 16.4696 10.2139 16.6279 10.3721C16.7861 10.5304 16.875 10.745 16.875 10.9688Z" fill="#D06666"/>
</svg>
